<svg xmlns="http://www.w3.org/2000/svg" viewBox="0 0 1440 900">
  <defs>
    <linearGradient id="desk" x1="0%" y1="0%" x2="100%" y2="100%">
      <stop offset="0%" stop-color="#f7f1e7"/>
      <stop offset="55%" stop-color="#d5e4f2"/>
      <stop offset="100%" stop-color="#89a7c5"/>
    </linearGradient>
    <linearGradient id="window" x1="0%" y1="0%" x2="100%" y2="100%">
      <stop offset="0%" stop-color="#ffffff" stop-opacity="0.92"/>
      <stop offset="100%" stop-color="#f1f4f8" stop-opacity="0.88"/>
    </linearGradient>
  </defs>
  <rect width="1440" height="900" fill="url(#desk)"/>
  <rect x="0" y="0" width="1440" height="36" fill="#f7f5f2" opacity="0.88"/>
  <rect x="365" y="18" width="125" height="8" rx="4" fill="#8d9099" opacity="0.72"/>
  <rect x="530" y="16" width="120" height="12" rx="6" fill="#6d7280" opacity="0.25"/>
  <rect x="1080" y="12" width="250" height="14" rx="7" fill="#7a7f88" opacity="0.18"/>
  <rect x="250" y="118" width="940" height="540" rx="26" fill="url(#window)" stroke="#d6dbe3"/>
  <rect x="250" y="118" width="940" height="46" rx="26" fill="#f5f6f8"/>
  <circle cx="286" cy="141" r="7" fill="#ff5f57"/>
  <circle cx="310" cy="141" r="7" fill="#febc2e"/>
  <circle cx="334" cy="141" r="7" fill="#28c840"/>
  <rect x="308" y="192" width="824" height="22" rx="11" fill="#d8dee7"/>
  <rect x="308" y="236" width="220" height="350" rx="18" fill="#edf1f5"/>
  <rect x="558" y="236" width="574" height="350" rx="18" fill="#ffffff" opacity="0.84"/>
  <rect x="438" y="780" width="564" height="76" rx="28" fill="#f6f5f2" opacity="0.84" stroke="#d6d6d2"/>
  <circle cx="500" cy="818" r="24" fill="#7aa7d7"/>
  <circle cx="580" cy="818" r="24" fill="#f4c774"/>
  <circle cx="660" cy="818" r="24" fill="#d98b8b"/>
  <circle cx="740" cy="818" r="24" fill="#7eb4a5"/>
  <circle cx="820" cy="818" r="24" fill="#a6a1d8"/>
  <circle cx="900" cy="818" r="24" fill="#8f9bb6"/>
  <text x="720" y="94" text-anchor="middle" font-family="Cantarell, sans-serif" font-size="28" fill="#3e4958">Cider-Shell visual target</text>
</svg>
